 <svg  version="1.0" xmlns="http://www.w3.org/2000/svg"  width="172.000000pt" height="186.000000pt" viewBox="0 0 172.000000 186.000000"  preserveAspectRatio="xMidYMid meet">  <g transform="translate(0.000000,186.000000) scale(0.100000,-0.100000)" fill="#0b4b5b" stroke="none"> <path d="M225 1827 c-22 -12 -50 -38 -62 -56 -22 -32 -23 -43 -23 -206 0 -197 3 -205 86 -245 35 -17 56 -21 90 -16 50 6 58 -6 16 -23 -20 -9 -36 -9 -56 -1 -15 5 -31 10 -36 10 -19 0 -63 -92 -63 -130 0 -43 25 -90 48 -90 8 0 15 -7 15 -15 0 -14 -3 -13 -25 1 -14 9 -28 14 -31 11 -3 -3 -8 -38 -11 -79 -6 -79 5 -118 33 -118 12 0 14 -5 8 -17 -4 -10 -7 -29 -6 -43 1 -14 2 -35 2 -47 0 -13 9 -29 20 -35 15 -10 20 -24 20 -59 0 -48 22 -80 57 -84 27 -2 53 -16 53 -27 0 -5 -12 -8 -27 -6 -14 2 -28 -1 -29 -7 -6 -19 51 -110 82 -130 18 -11 39 -38 49 -63 25 -58 38 -67 75 -52 16 7 30 16 30 21 0 16 25 9 37 -11 11 -16 10 -21 -5 -30 -15 -9 -14 -13 15 -40 63 -57 133 -52 200 15 32 31 43 50 43 73 0 17 5 34 10 37 6 4 10 -27 10 -85 l0 -91 43 3 c38 3 42 5 39 26 l-4 24 39 -26 c20 -14 42 -26 47 -26 13 0 136 73 136 81 0 3 -10 10 -22 16 -23 10 -22 10 9 26 29 15 33 16 41 1 6 -10 19 -14 38 -12 22 2 30 9 32 28 2 13 13 30 23 38 10 7 19 19 19 25 0 7 17 21 37 32 25 13 47 37 65 70 33 61 35 79 8 72 -11 -3 -23 -1 -26 4 -3 5 6 9 19 9 13 0 37 10 52 22 25 19 27 26 23 75 -4 46 -2 53 13 53 21 0 59 50 59 77 0 10 -9 26 -20 36 l-21 17 27 35 c24 31 25 40 20 102 -8 93 -8 112 -1 155 5 24 1 54 -10 87 -9 28 -13 60 -10 72 7 20 5 21 -21 15 -16 -4 -38 -16 -50 -27 -27 -25 -40 -24 -66 6 -12 14 -25 25 -29 25 -19 0 -41 -102 -35 -163 3 -34 6 -74 6 -89 1 -15 5 -30 10 -33 6 -4 10 -15 10 -27 0 -12 8 -22 21 -25 14 -4 18 -11 14 -22 -16 -41 -17 -72 -1 -96 20 -31 20 -43 0 -41 -18 1 -64 -78 -64 -110 0 -16 -8 -23 -27 -27 -33 -6 -66 19 -60 44 3 11 -10 31 -32 53 l-36 36 -3 167 -4 168 64 0 63 0 3 44 c3 40 1 43 -17 38 -28 -7 -26 4 4 33 38 35 31 43 -26 36 -47 -6 -54 -5 -80 20 -26 25 -31 26 -54 14 -13 -7 -40 -28 -59 -45 -28 -25 -47 -33 -91 -38 l-55 -6 0 175 0 174 -42 0 -43 0 3 -146 4 -146 -23 12 c-14 8 -18 15 -10 19 8 5 11 77 11 245 1 130 -2 240 -4 245 -3 4 -21 5 -40 3 l-35 -4 6 -102 6 -102 -82 0 -81 1 -1 75 c-3 135 1 125 -43 128 l-38 3 3 -239 4 -239 -39 -43 c-38 -42 -38 -44 -20 -59 16 -13 19 -26 16 -63 l-4 -48 44 0 45 0 -10 -57 c-6 -40 -18 -67 -37 -88 -67 -74 -77 -96 -71 -155 l6 -55 195 -102 c165 -87 195 -106 196 -125 0 -13 3 -30 6 -38 4 -8 9 -38 12 -66 4 -46 2 -53 -15 -57 -11 -3 -36 -3 -54 0 -25 4 -35 12 -40 30 -15 60 -77 123 -122 123 -31 0 -83 55 -83 88 0 33 -20 54 -47 52 -53 -6 -63 -1 -63 33 0 42 -33 95 -69 110 l-29 12 20 25 c12 15 18 36 16 56 -1 17 3 38 9 45 6 8 10 34 10 59 -2 30 3 50 15 62 32 32 38 81 18 155 l-18 68 29 31 c29 30 30 34 27 110 l-3 79 -35 0 -35 0 -3 -68 c-3 -59 -6 -69 -28 -83 -31 -21 -67 -21 -99 0 -25 16 -25 17 -25 176 l0 159 26 20 c32 25 81 27 112 5 18 -12 22 -25 22 -65 l0 -49 40 0 40 0 0 57 c0 45 -5 63 -26 91 -49 63 -137 80 -209 39z m557 -232 c5 -40 -3 -44 -33 -14 l-22 22 24 13 c13 7 25 13 25 14 1 0 4 -16 6 -35z m-213 7 c7 -14 5 -21 -8 -29 -14 -9 -17 -6 -19 18 -3 33 12 38 27 11z m306 -213 l7 -181 184 3 c101 2 184 1 184 -3 0 -5 -60 -9 -132 -10 -73 0 -137 -2 -143 -3 -5 -2 -30 -3 -54 -4 l-43 -1 6 -232 c18 -703 18 -728 7 -728 -8 0 -11 54 -12 178 -1 97 -2 206 -4 242 -1 36 -4 172 -5 303 l-3 238 -183 -3 c-101 -2 -184 0 -184 3 0 4 81 10 181 14 l181 7 -4 179 c-2 98 0 179 3 179 4 0 10 -81 14 -181z m-135 68 l0 -103 -31 -11 c-27 -11 -36 -9 -80 18 l-49 31 0 84 0 84 80 0 80 0 0 -103z m-120 -148 l51 -31 44 17 c44 16 46 16 80 -5 19 -12 35 -28 35 -36 0 -11 -26 -14 -142 -14 -128 1 -146 3 -167 21 l-24 20 28 29 c16 17 32 30 37 30 4 0 30 -14 58 -31z m530 -24 c7 -8 22 -15 33 -15 13 0 17 -4 12 -9 -12 -11 -125 -19 -125 -9 0 7 51 47 61 48 4 0 12 -7 19 -15z m-784 -37 c-9 -5 -16 -17 -16 -26 0 -9 -9 -32 -20 -50 -21 -34 -26 -62 -11 -62 14 0 31 26 51 77 l19 48 1 -43 c0 -35 -6 -49 -29 -73 -33 -33 -40 -34 -65 -16 -15 11 -17 21 -11 55 8 48 66 119 86 107 8 -6 7 -10 -5 -17z m-101 -28 c-8 -16 -15 -44 -15 -62 0 -46 -13 -64 -30 -43 -26 31 13 151 46 138 11 -4 11 -9 -1 -33z m1141 25 c16 -15 53 -93 54 -111 0 -6 -11 -16 -25 -22 -35 -16 -74 19 -81 73 l-5 40 22 -47 c14 -32 28 -48 40 -48 25 0 24 9 -6 68 -14 28 -25 53 -25 56 0 10 11 7 26 -9z m98 -26 c9 -47 7 -89 -4 -89 -5 0 -10 10 -10 23 0 12 -3 39 -6 60 -8 45 11 51 20 6z m-672 -179 c3 -108 1 -119 -14 -114 -9 2 -19 0 -23 -6 -5 -8 -11 -8 -21 1 -11 9 -17 9 -29 -1 -8 -7 -15 -17 -15 -22 0 -6 7 -8 15 -4 20 7 19 -4 -2 -19 -28 -21 -6 -36 46 -32 l47 4 3 -104 c1 -58 -2 -103 -6 -101 -8 3 -347 180 -349 182 -1 1 -4 17 -8 37 -6 33 -2 40 47 95 51 55 55 63 61 126 l8 67 101 4 c56 1 110 4 119 5 15 2 17 -12 20 -118z m281 -57 l7 -178 35 -31 c19 -17 35 -34 35 -38 0 -3 -15 -6 -34 -6 -28 0 -35 -4 -40 -26 -4 -14 -22 -34 -41 -46 -29 -16 -35 -26 -35 -54 0 -23 -6 -37 -20 -44 -13 -7 -20 -21 -20 -41 0 -37 -25 -49 -50 -23 -17 17 -19 47 -26 342 l-7 322 95 0 95 0 6 -177z m407 9 c0 -54 -18 -85 -60 -107 -37 -19 -37 -19 -49 4 -17 30 5 85 50 125 22 20 44 34 49 31 6 -4 10 -27 10 -53z m-1239 -4 c60 -45 58 -108 -4 -108 -18 0 -37 4 -44 8 -25 16 -44 102 -23 102 6 0 10 -5 10 -12 0 -14 59 -78 72 -78 23 0 2 44 -39 80 -37 33 -42 41 -23 35 13 -4 37 -17 51 -27z m-15 -159 c10 -17 -13 -36 -27 -22 -12 12 -4 33 11 33 5 0 12 -5 16 -11z m1180 -55 c-5 -13 -9 -15 -18 -6 -21 21 -27 13 -12 -15 34 -67 26 -143 -15 -143 -29 0 -41 30 -41 96 0 71 16 62 27 -15 5 -30 14 -56 21 -59 18 -6 15 70 -5 112 -16 34 -16 37 2 56 16 18 20 19 33 6 9 -8 12 -22 8 -32z m-1066 -53 c0 -42 -17 -79 -43 -95 -15 -9 -22 -7 -38 13 -23 28 -18 57 20 118 26 42 26 42 44 21 9 -11 17 -36 17 -57z m817 -57 c4 -19 4 -26 1 -61 -1 -10 2 -28 6 -40 5 -14 3 -23 -3 -23 -6 0 -11 9 -11 20 0 26 -27 26 -35 1 -3 -11 -15 -23 -26 -26 -11 -4 -36 -20 -55 -37 -41 -36 -48 -16 -9 30 14 17 25 42 25 56 0 19 7 29 25 36 13 5 31 23 40 40 17 34 36 36 42 4z m123 -19 c0 -25 -23 -35 -35 -15 -10 16 2 40 20 40 9 0 15 -9 15 -25z m-865 -4 c0 -8 -8 -19 -17 -25 -22 -13 -41 3 -32 28 8 20 49 18 49 -3z m45 -40 c0 -11 -5 -23 -11 -27 -15 -9 -33 12 -26 30 9 23 37 20 37 -3z m770 -6 c0 -16 -27 -27 -36 -14 -3 5 -3 16 0 24 6 17 36 9 36 -10z m-712 -58 c2 -15 -1 -27 -6 -27 -17 0 -34 29 -28 46 9 23 31 11 34 -19z m-87 -7 c17 -10 49 -59 49 -77 0 -4 -27 -8 -60 -8 -61 1 -71 6 -100 57 -11 18 -5 21 60 31 14 3 26 5 28 6 2 0 12 -4 23 -9z m909 4 c0 -3 -14 -23 -32 -45 -31 -38 -33 -39 -77 -33 -25 4 -47 8 -49 9 -10 9 14 58 32 65 23 10 126 13 126 4z m-736 -30 c15 -15 34 -41 41 -58 15 -35 5 -56 -42 -87 -41 -27 -53 -24 -51 14 0 17 -2 51 -7 75 -10 54 6 55 36 2 32 -56 67 -53 38 3 -6 12 -23 34 -37 50 -33 35 -16 35 22 1z m532 -8 c1 -7 5 -23 8 -34 5 -15 2 -22 -14 -27 -13 -4 -23 -18 -27 -37 -6 -32 -41 -55 -67 -45 -26 10 -20 71 10 107 36 42 42 31 10 -17 -29 -43 -33 -63 -11 -63 8 0 15 4 15 9 0 4 11 24 23 43 13 19 27 47 31 62 7 28 18 29 22 2z m-150 -92 c1 -38 -2 -40 -30 -19 -11 8 -30 15 -43 15 -15 0 -23 6 -23 18 0 13 10 17 48 19 l47 1 1 -34z m-541 0 c0 -10 -8 -20 -17 -22 -18 -3 -26 27 -11 42 12 11 28 0 28 -20z m770 1 c0 -10 -6 -20 -12 -22 -8 -3 -13 5 -13 22 0 17 5 25 13 23 6 -3 12 -13 12 -23z m-56 -21 c-16 -19 -29 -17 -29 4 0 26 11 34 27 21 10 -9 10 -15 2 -25z m-455 -58 c-27 -25 -61 -47 -76 -50 -40 -8 -35 -26 7 -26 28 0 45 9 80 41 49 45 61 39 19 -10 -34 -40 -92 -58 -133 -41 -17 7 -31 14 -31 15 0 1 23 28 51 59 47 50 56 56 92 56 l40 0 -49 -44z m289 -17 c26 -17 47 -35 47 -40 0 -16 -49 -41 -69 -34 -38 12 -81 61 -81 92 0 39 9 46 34 28 12 -9 42 -29 69 -46z m-523 37 c0 -18 -17 -29 -30 -21 -8 5 -7 11 1 21 15 18 29 18 29 0z"/> <path d="M623 922 c-27 -3 -32 -8 -36 -35 l-4 -32 -1 33 c-2 29 -5 32 -32 32 -28 0 -30 -2 -30 -40 0 -22 5 -40 10 -40 6 0 10 7 10 15 0 8 5 15 10 15 6 0 10 -7 10 -15 0 -11 12 -15 46 -15 32 0 44 4 41 13 -2 6 -11 11 -21 9 -9 -2 -16 2 -16 8 0 5 8 10 18 11 14 0 14 2 -3 9 -19 8 -19 9 2 9 15 1 24 -8 32 -29 5 -16 14 -30 20 -30 9 0 31 53 31 76 0 22 -20 16 -30 -8 -6 -17 -9 -18 -9 -6 -1 21 -8 24 -48 20z"/> <path d="M944 914 c3 -9 9 -27 12 -40 8 -31 30 -31 38 0 3 13 9 31 12 40 4 10 1 16 -9 16 -9 0 -18 -8 -20 -17 -4 -17 -5 -17 -6 0 0 9 -8 17 -17 17 -11 0 -14 -5 -10 -16z"/> <path d="M1027 924 c-12 -13 -8 -24 10 -24 14 0 15 -2 5 -12 -7 -7 -18 -13 -24 -13 -6 0 -13 -6 -15 -12 -3 -9 8 -13 35 -13 39 0 39 0 38 38 -1 29 -5 38 -21 40 -12 2 -24 0 -28 -4z"/> <path d="M1457 984 c-21 -26 -37 -58 -37 -71 0 -32 8 -26 54 42 26 37 36 59 29 66 -6 6 -22 -6 -46 -37z"/> <path d="M331 740 c-23 -49 -28 -94 -10 -88 13 4 42 105 35 122 -2 6 -13 -9 -25 -34z"/> <path d="M386 501 c-9 -13 1 -18 62 -26 53 -7 71 5 35 23 -26 13 -90 15 -97 3z"/> <path d="M1297 516 c-53 -14 -62 -20 -53 -34 8 -13 65 0 99 23 45 29 33 32 -46 11z"/> <path d="M940 329 c0 -15 56 -66 82 -74 11 -4 25 -2 31 4 7 7 1 15 -24 25 -19 8 -43 24 -53 35 -21 23 -36 27 -36 10z"/> <path d="M1034 1840 c-32 -13 -82 -76 -89 -113 -4 -19 -4 -56 -2 -83 3 -27 6 -106 6 -176 l1 -128 35 0 35 0 0 60 0 60 85 0 84 0 3 -57 3 -58 34 0 33 0 -1 194 c-2 214 -8 240 -60 284 -27 23 -42 27 -89 26 -31 0 -66 -4 -78 -9z m135 -89 c5 -9 12 -62 16 -118 l7 -103 -86 0 -86 0 0 96 c0 52 5 104 11 115 25 47 115 54 138 10z"/> <path d="M1459 1721 c-46 -72 -86 -130 -89 -130 -3 -1 -4 55 -3 124 l3 125 -35 0 -36 0 2 -244 c0 -134 3 -246 5 -248 2 -3 17 -3 34 0 30 4 30 4 30 71 0 55 4 73 26 105 l26 38 57 -104 58 -103 41 -3 c47 -4 49 -1 24 36 -10 15 -40 67 -66 116 -26 49 -52 97 -58 106 -8 13 6 39 67 128 l76 112 -39 0 -40 0 -83 -129z m-91 -171 c-7 -11 -16 -20 -20 -20 -5 0 -8 9 -8 20 0 13 7 20 20 20 18 0 19 -2 8 -20z"/> <path d="M1608 1299 c-47 -24 -41 -41 18 -55 49 -11 68 -1 38 21 -15 11 -17 16 -6 26 32 33 4 37 -50 8z"/> <path d="M36 1244 c-19 -18 -20 -28 -6 -55 17 -30 33 -23 25 11 -6 27 -4 30 19 30 28 0 34 -18 14 -38 -20 -20 1 -26 22 -7 25 23 25 30 0 55 -24 24 -53 26 -74 4z"/> <path d="M1580 1211 c0 -6 10 -16 23 -20 19 -8 20 -10 5 -16 -10 -4 -18 -13 -18 -21 0 -18 10 -17 34 1 11 8 28 15 38 15 29 0 21 27 -9 33 -16 3 -38 8 -50 12 -15 5 -23 3 -23 -4z"/> <path d="M20 1134 c0 -11 6 -15 20 -11 15 4 20 0 20 -13 0 -10 -7 -17 -16 -16 -9 0 -19 -5 -21 -11 -3 -9 10 -13 46 -13 39 0 51 4 51 15 0 8 -9 15 -20 15 -26 0 -26 20 0 27 37 10 20 23 -30 23 -39 0 -50 -3 -50 -16z"/> <path d="M1593 1108 c2 -7 15 -12 28 -11 24 3 24 3 -4 -18 -35 -27 -27 -39 29 -39 34 0 44 4 44 16 0 12 -6 15 -27 10 l-28 -6 28 21 c39 30 34 39 -24 39 -36 0 -49 -4 -46 -12z"/> <path d="M57 1043 c-24 -3 -37 -9 -34 -16 2 -7 11 -11 21 -9 9 2 16 -4 16 -13 0 -8 -7 -15 -15 -15 -8 0 -15 -6 -15 -14 0 -19 79 -15 90 5 11 19 1 69 -14 67 -6 -1 -28 -3 -49 -5z"/> <path d="M1599 1015 c-3 -2 -3 -21 -1 -40 l4 -36 47 3 c45 3 46 4 46 37 0 19 -6 36 -12 39 -8 2 -13 -6 -13 -22 0 -14 -5 -26 -11 -26 -5 0 -9 9 -7 20 4 27 -16 26 -24 -2 -6 -22 -6 -21 -7 5 -1 25 -10 34 -22 22z"/> <path d="M37 934 c-14 -14 6 -24 49 -24 32 0 44 4 44 15 0 11 -11 15 -43 15 -24 0 -47 -3 -50 -6z"/> <path d="M1590 917 c0 -9 5 -19 10 -22 15 -10 12 -25 -6 -25 -9 0 -14 -6 -12 -12 3 -8 25 -14 52 -16 36 -2 47 0 43 10 -2 7 -10 12 -16 11 -20 -5 -12 15 9 22 11 3 20 13 20 21 0 18 -11 18 -36 0 -17 -13 -22 -12 -41 6 -19 18 -23 19 -23 5z"/> <path d="M46 874 c-11 -29 -6 -53 12 -63 22 -12 42 3 42 31 0 10 5 18 11 18 6 0 8 -9 4 -21 -5 -16 -3 -20 6 -17 8 3 14 18 14 34 0 24 -4 29 -25 29 -20 0 -26 -6 -28 -28 -2 -15 -8 -25 -13 -22 -5 4 -6 17 -3 31 7 26 -10 34 -20 8z"/> <path d="M129 805 c-1 -3 -2 -11 -3 -17 0 -7 -16 -15 -34 -18 -42 -6 -38 -25 6 -25 18 0 36 -6 41 -14 5 -7 11 -9 14 -4 9 14 -4 83 -14 83 -5 0 -10 -2 -10 -5z"/> <path d="M1566 758 c-10 -39 -7 -45 33 -56 49 -15 51 -15 51 3 0 8 -7 15 -16 15 -11 0 -13 6 -9 19 3 11 1 22 -5 26 -7 4 -14 -2 -17 -14 -8 -30 -21 -26 -15 4 5 31 -13 33 -22 3z"/> <path d="M112 700 c-39 -9 -49 -17 -36 -30 13 -12 94 11 94 27 0 14 -9 15 -58 3z"/> <path d="M1546 671 c-23 -26 -17 -52 16 -71 21 -11 32 -12 45 -4 28 17 28 59 1 78 -29 21 -41 20 -62 -3z m54 -26 c10 -12 9 -16 -5 -21 -19 -8 -40 9 -31 25 10 15 21 14 36 -4z"/> <path d="M90 634 c0 -7 7 -14 15 -18 11 -4 14 -13 9 -31 -8 -32 6 -32 48 2 18 15 35 28 37 30 3 2 -1 9 -8 16 -16 16 -101 17 -101 1z"/> <path d="M168 559 c-38 -19 -50 -39 -25 -39 7 0 18 5 25 12 17 17 14 -3 -3 -26 -19 -25 -19 -36 -2 -36 17 0 75 28 82 40 9 15 -15 22 -30 10 -10 -8 -15 -9 -15 -2 0 6 5 14 10 17 12 7 14 45 3 45 -5 -1 -25 -10 -45 -21z"/> <path d="M1480 539 c0 -6 9 -13 20 -16 30 -8 24 -25 -7 -21 -40 4 -35 -19 9 -44 44 -25 64 -16 28 12 l-25 20 33 0 c43 0 42 22 -3 43 -41 20 -55 21 -55 6z"/> <path d="M1431 444 c-28 -20 -26 -48 5 -73 39 -31 82 -4 70 43 -8 33 -48 49 -75 30z m49 -39 c0 -19 -13 -25 -29 -15 -19 11 -6 41 14 34 8 -3 15 -12 15 -19z"/> <path d="M243 427 c-39 -26 -44 -50 -9 -41 26 6 45 -11 21 -20 -17 -6 -20 -26 -5 -26 18 0 70 43 70 57 0 10 -5 11 -19 3 -14 -7 -22 -7 -27 2 -4 6 -2 14 4 16 13 4 17 32 5 31 -5 0 -23 -10 -40 -22z"/> <path d="M1370 368 c0 -12 62 -68 74 -68 17 0 1 29 -28 53 -39 30 -46 33 -46 15z"/> <path d="M302 337 l-32 -33 30 -29 c20 -19 30 -24 30 -14 0 8 -5 20 -12 27 -6 6 -8 15 -3 19 4 5 10 2 12 -4 5 -15 33 -18 33 -4 0 6 -4 13 -10 16 -5 3 -10 12 -10 18 0 7 7 4 14 -5 14 -19 36 -24 36 -10 0 9 -43 52 -51 52 -3 0 -19 -15 -37 -33z"/> <path d="M1324 319 c-26 -29 -27 -31 -7 -27 15 4 29 -2 44 -18 12 -13 26 -24 31 -24 15 0 8 27 -12 45 -13 11 -18 25 -14 37 8 27 -9 22 -42 -13z"/> <path d="M377 268 c-37 -22 -45 -46 -13 -40 10 2 20 -8 27 -25 l11 -28 14 33 c18 42 22 74 9 78 -5 2 -27 -6 -48 -18z"/> <path d="M1265 270 c-7 -11 12 -79 26 -94 5 -5 12 2 18 17 7 19 15 24 30 20 36 -9 24 20 -19 45 -45 25 -47 26 -55 12z"/> <path d="M450 209 l-23 -42 24 -18 c13 -10 27 -19 32 -19 13 0 7 22 -9 34 -14 10 -13 15 6 39 19 24 20 47 1 47 -4 0 -18 -19 -31 -41z"/> <path d="M1200 230 c0 -18 45 -80 58 -80 17 0 16 5 -13 50 -24 38 -45 52 -45 30z"/> <path d="M526 201 c-3 -5 1 -11 9 -15 12 -4 12 -9 -3 -35 -13 -24 -14 -33 -5 -42 10 -10 16 -5 28 24 10 25 20 35 30 31 26 -10 17 22 -10 34 -31 14 -42 15 -49 3z"/> <path d="M1136 194 c-20 -19 -20 -34 0 -62 19 -27 60 -29 74 -3 5 11 10 22 10 25 0 12 -23 5 -35 -11 -14 -19 -35 -9 -35 18 0 14 7 19 25 19 28 0 34 15 9 24 -24 9 -31 8 -48 -10z"/> <path d="M597 136 c-8 -25 -13 -47 -9 -50 10 -11 21 -6 27 13 9 29 33 15 27 -16 -9 -45 22 -21 32 26 10 44 1 67 -15 38 -13 -23 -29 -22 -29 2 0 38 -18 31 -33 -13z"/> <path d="M1036 154 c-21 -20 -20 -37 2 -64 39 -48 102 3 68 55 -19 29 -47 32 -70 9z m52 -38 c3 -13 -1 -17 -14 -14 -11 2 -20 11 -22 22 -3 13 1 17 14 14 11 -2 20 -11 22 -22z"/> <path d="M940 135 c-18 -21 -5 -45 25 -45 14 0 25 -5 25 -11 0 -7 -10 -9 -26 -5 -19 5 -25 3 -22 -6 7 -19 53 -21 68 -4 16 20 -2 46 -31 46 -11 0 -19 5 -19 10 0 6 11 8 28 4 24 -7 26 -6 13 9 -17 21 -45 22 -61 2z"/> <path d="M750 100 c-24 -47 -19 -65 12 -47 16 9 22 9 25 0 3 -7 12 -13 20 -13 11 0 14 6 9 23 -4 12 -9 34 -12 50 -9 39 -30 34 -54 -13z"/> <path d="M843 129 c-17 -17 2 -49 27 -49 11 0 20 -5 20 -11 0 -7 -10 -9 -26 -5 -19 5 -25 3 -22 -6 7 -19 53 -21 68 -4 16 20 -2 46 -31 46 -11 0 -19 5 -19 10 0 6 11 8 26 4 20 -5 25 -3 22 7 -6 18 -50 23 -65 8z"/> </g> </svg> 